# xmcd
#
# Track frame offsets: 
#        183
#        15743
#        34920
#        50915
#        67588
#        80465
#        99485
#        111623
#        128278
#        142268
#        155670
#        169535
#
# Disc length: 2456 seconds
#
# Revision: 2
# Processed by: cddbd v1.4PL0 Copyright (c) Steve Scherf et al.
# Submitted via: ExactAudioCopy v0.90b4
#
DISCID=9f09960c
DTITLE=Carole King - Carole King
DYEAR=1900
DGENRE=Folk
TTITLE0=Nightingale
TTITLE1=Change in Mind, Change of Heart
TTITLE2=Jazzman
TTITLE3=You Go Your Way, I'll Go Mine
TTITLE4=You're Something New
TTITLE5=We Are All In This Together
TTITLE6=Wrap Around Joy
TTITLE7=You Gentle Me
TTITLE8=My Lovin' Eyes
TTITLE9=Sweet Adonis
TTITLE10=A Night This Side of Dying
TTITLE11=The Best Yet Is To Come
EXTD=
EXTT0=
EXTT1=
EXTT2=
EXTT3=
EXTT4=
EXTT5=
EXTT6=
EXTT7=
EXTT8=
EXTT9=
EXTT10=
EXTT11=
PLAYORDER=
